# xmcd CD database file
#
# Track frame offsets:
#	183
#	30358
#	51033
#	81383
#	109108
#	132633
#	156483
#	169183
#	189033
#
# Disc length: 2787 seconds
#
# Revision: 0
# Processed by: cddbd v1.5.1PL0 Copyright (c) Steve Scherf et al.
# Submitted via: CDex 1.51
#
DISCID=710ae109
DTITLE=Homesick James and The Hypnotics - Sweet Home Tennessee
DYEAR=1992
DGENRE=Blues
TTITLE0=Gotta Move
TTITLE1=Meet Me In The Bottom
TTITLE2=Crawlin' Kingsnake
TTITLE3=Come Back Baby
TTITLE4=Can't Afford To Do It
TTITLE5=Sweet Home Tennessee
TTITLE6=Kissing In The Dark
TTITLE7=Married Woman
TTITLE8=Woman I Love
EXTD=YEAR: 1992
EXTT0=
EXTT1=
EXTT2=
EXTT3=
EXTT4=
EXTT5=
EXTT6=
EXTT7=
EXTT8=
PLAYORDER=
